<?xml version="1.0" encoding="UTF-8"?>
<svg id="Capa_3" xmlns="http://www.w3.org/2000/svg" version="1.1" viewBox="0 0 635.473446 800.000122">
  <!-- Generator: Adobe Illustrator 30.2.1, SVG Export Plug-In . SVG Version: 2.1.1 Build 1)  -->
  <defs>
    <style>
      .st0 {
        fill: #fff;
      }
    </style>
  </defs>
  <path class="st0" d="M630.360653,121.813599L513.659725,5.112671c-3.273682-3.273682-7.713623-5.112671-12.343018-5.112671H147.030941c-15.551392,0-23.339478,18.802124-12.343018,29.798706l242.092163,242.092773c8.557007,8.556885,13.364258,20.162598,13.364258,32.264038v57.130737c0,11.995605-4.723633,23.508545-13.148682,32.047241L5.065121,770.284302c-10.882935,11.029785-3.069458,29.71582,12.425415,29.71582h354.565674c4.698486,0,9.198486-1.894287,12.482666-5.25415l245.961426-251.626465c3.187988-3.261353,4.973145-7.640869,4.973145-12.20166V134.156738c0-4.629517-1.839111-9.069458-5.112793-12.34314Z"/>
</svg>