<?xml version="1.0" encoding="UTF-8"?>
<svg id="Capa_3" xmlns="http://www.w3.org/2000/svg" version="1.1" viewBox="0 0 635.47345 800.000122">
  <!-- Generator: Adobe Illustrator 30.2.1, SVG Export Plug-In . SVG Version: 2.1.1 Build 1)  -->
  <defs>
    <style>
      .st0 {
        fill: #fff;
      }
    </style>
  </defs>
  <path class="st0" d="M496.120667,30l109.352783,109.352905v386.452393l-238.697388,244.194824H47.490292l350.860477-355.596191c14.053833-14.243652,21.793579-33.108032,21.793579-53.117676v-57.130737c0-20.20105-7.866699-39.192871-22.151123-53.477173L177.315735,30h318.804932M501.316711,0H147.030945C131.479675,0,123.691467,18.802124,134.688049,29.798706l242.091919,242.092651c8.556885,8.557007,13.36438,20.16272,13.36438,32.26416v57.130737c0,11.995728-4.723755,23.508545-13.148682,32.047363L5.065121,770.284302c-10.882935,11.029785-3.069458,29.71582,12.425415,29.71582h354.565678c4.698486,0,9.198486-1.894287,12.482666-5.25415l245.96167-251.626343c3.187744-3.261475,4.9729-7.640991,4.9729-12.201904V134.156616c0-4.629395-1.839111-9.069458-5.112793-12.343018L513.659729,5.112671C510.386047,1.838989,505.946106,0,501.316711,0h0Z"/>
</svg>